# File created by Blade
# Date/Time:  Thu Jan 15 19:03:44 2015
#---------------------------------------------------------
:version 1.10
:name HOM
:units
  mass 1.0
  length 1.000000
  angle deg
:documentation
     Acclaim Skeleton File
:root
   axis xyz
   order TX TY TZ RX RY RZ
   position 0.000000 0.000000 0.000000
   orientation 0 0 0
:bonedata
   begin
      id 1
      name Spine_dum
      direction 0.000000 1.000000 0.000000
      length 4.354460
      axis 0.0 0.0 0.0 xyz
   end
   begin
      id 2
      name LeftUpLeg_dum
      direction 1.000000 0.000000 0.000000
      length 4.291077
      axis 0.0 0.0 0.0 xyz
   end
   begin
      id 3
      name RightUpLeg_dum
      direction -1.000000 0.000000 0.000000
      length 4.291077
      axis 0.0 0.0 0.0 xyz
   end
   begin
      id 4
      name Spine
      direction 0.000000 1.000000 0.000000
      length 0.000000
      axis 0.0 0.0 0.0 xyz
      dof rx ry rz
   end
   begin
      id 5
      name Spine_dum1
      direction 0.000000 1.000000 0.000000
      length 16.581769
      axis 0.0 0.0 0.0 xyz
   end
   begin
      id 6
      name Spine_dum2
      direction 0.000000 1.000000 0.000000
      length 12.903700
      axis 0.0 0.0 0.0 xyz
   end
   begin
      id 7
      name Spine_dum3
      direction 0.000000 1.000000 0.000000
      length 12.903700
      axis 0.0 0.0 0.0 xyz
   end
   begin
      id 8
      name Head
      direction 0.000000 1.000000 0.000000
      length 4.527550
      axis 0.0 0.0 0.0 xyz
      dof rx ry rz
   end
   begin
      id 9
      name LeftShoulder
      direction 1.000000 0.000000 0.000000
      length 6.942033
      axis 0.0 0.0 -90.0 xyz
      dof rx ry rz
   end
   begin
      id 10
      name LeftArm
      direction 1.000000 0.000000 0.000000
      length 11.010391
      axis 0.0 0.0 -90.0 xyz
      dof rx ry rz
   end
   begin
      id 11
      name LeftForeArm
      direction 1.000000 0.000000 0.000000
      length 8.054994
      axis 0.0 0.0 -90.0 xyz
      dof rz ry rx
   end
   begin
      id 12
      name LeftHand
      direction 0.000000 0.000000 0.000000
      length 0.000000
      axis 0.0 0.0 -90.0 xyz
      dof rx ry rz
   end
   begin
      id 13
      name LeftHand_dum1
      direction 0.000000 0.000000 0.000000
      length 0.000000
      axis 0.0 0.0 -90.0 xyz
   end
   begin
      id 14
      name LeftHand_dum2
      direction 1.000000 0.000000 0.000000
      length 3.937000
      axis 0.0 0.0 -90.0 xyz
   end
   begin
      id 15
      name LeftHandThumb1
      direction 0.000000 0.000000 1.000000
      length 3.937000
      axis 0.0 0.0 -90.0 xyz
      dof rx ry rz
   end
   begin
      id 16
      name RightShoulder
      direction -1.000000 0.000000 0.000000
      length 6.942033
      axis 0.0 0.0 90.0 xyz
      dof rx ry rz
   end
   begin
      id 17
      name RightArm
      direction -1.000000 0.000000 0.000000
      length 11.010391
      axis 0.0 0.0 90.0 xyz
      dof rx ry rz
   end
   begin
      id 18
      name RightForeArm
      direction -1.000000 0.000000 0.000000
      length 8.054994
      axis 0.0 0.0 90.0 xyz
      dof rz ry rx
   end
   begin
      id 19
      name RightHand
      direction 0.000000 0.000000 0.000000
      length 0.000000
      axis 0.0 0.0 90.0 xyz
      dof rx ry rz
   end
   begin
      id 20
      name RightHand_dum1
      direction 0.000000 0.000000 0.000000
      length 0.000000
      axis 0.0 0.0 90.0 xyz
   end
   begin
      id 21
      name RightHand_dum2
      direction -1.000000 0.000000 0.000000
      length 3.937000
      axis 0.0 0.0 90.0 xyz
   end
   begin
      id 22
      name RightHandThumb1
      direction 0.000000 0.000000 1.000000
      length 3.937000
      axis 0.0 0.0 90.0 xyz
      dof rx ry rz
   end
   begin
      id 23
      name LeftUpLeg
      direction 0.000000 -1.000000 0.000000
      length 17.039958
      axis 0.0 0.0 0.0 xyz
      dof rx ry rz
   end
   begin
      id 24
      name LeftLeg
      direction 0.000000 -1.000000 0.000000
      length 16.939743
      axis 0.0 0.0 0.0 xyz
      dof rx ry rz
   end
   begin
      id 25
      name LeftFoot
      direction 0.000000 -0.258819 0.965926
      length 5.235044
      axis 15.0 0.0 0.0 xyz
      dof rx ry rz
   end
   begin
      id 26
      name LeftToeBase
      direction 0.000000 0.000000 1.000000
      length 2.952750
      axis 0.0 0.0 0.0 xyz
      dof rx ry rz
   end
   begin
      id 27
      name RightUpLeg
      direction 0.000000 -1.000000 0.000000
      length 17.039958
      axis 0.0 0.0 0.0 xyz
      dof rx ry rz
   end
   begin
      id 28
      name RightLeg
      direction 0.000000 -1.000000 0.000000
      length 16.939743
      axis 0.0 0.0 0.0 xyz
      dof rx ry rz
   end
   begin
      id 29
      name RightFoot
      direction 0.000000 -0.258819 0.965926
      length 5.235044
      axis 15.0 0.0 0.0 xyz
      dof rx ry rz
   end
   begin
      id 30
      name RightToeBase
      direction 0.000000 0.000000 1.000000
      length 2.952750
      axis 0.0 0.0 0.0 xyz
      dof rx ry rz
   end
:hierarchy
   begin
      root Spine_dum LeftUpLeg_dum RightUpLeg_dum
      Spine_dum Spine
      LeftUpLeg_dum LeftUpLeg
      RightUpLeg_dum RightUpLeg
      Spine Spine_dum1 Spine_dum2 Spine_dum3
      Spine_dum1 Head
      Spine_dum2 LeftShoulder
      Spine_dum3 RightShoulder
      LeftShoulder LeftArm
      LeftArm LeftForeArm
      LeftForeArm LeftHand
      LeftHand LeftHand_dum1 LeftHand_dum2
      LeftHand_dum1 LeftHandThumb1
      RightShoulder RightArm
      RightArm RightForeArm
      RightForeArm RightHand
      RightHand RightHand_dum1 RightHand_dum2
      RightHand_dum1 RightHandThumb1
      LeftUpLeg LeftLeg
      LeftLeg LeftFoot
      LeftFoot LeftToeBase
      RightUpLeg RightLeg
      RightLeg RightFoot
      RightFoot RightToeBase
   end

# File created by Blade
# Date/Time:  Thu Jan 15 19:03:33 2015
# Frame Rate: 120.000 fps
#------------------------------------------------------
:FULLY-SPECIFIED
:DEGREES
971
root 3.083047 35.662216 -12.134546 -175.902810 4.025880 -179.006063
Spine -15.603827 12.497700 -3.876554
Head 0.545561 -6.643907 8.278444
LeftShoulder 16.523500 -5.931361 11.418519
LeftArm 82.479510 -3.633308 -43.927496
LeftForeArm 0.000000 17.658304 2.330459
LeftHand -8.601603 0.000000 -24.611752
LeftHandThumb1 -26.253704 33.147579 0.000000
RightShoulder 5.414535 15.081139 -15.782983
RightArm 64.772390 -1.134186 46.823679
RightForeArm 0.000000 -53.039346 14.243164
RightHand -6.870734 0.000000 29.852988
RightHandThumb1 -24.326973 -32.862282 -0.000000
LeftUpLeg 4.540219 13.142696 -0.208838
LeftLeg -3.541501 -0.000000 0.000000
LeftFoot -17.873084 25.224043 -11.391143
LeftToeBase 19.642743 -0.000000 -0.000000
RightUpLeg 3.626122 -8.761035 0.461359
RightLeg -2.752280 -0.000000 0.000000
RightFoot -16.297361 -19.422620 11.202588
RightToeBase 19.445160 -0.000000 -0.000000
972
root 3.071643 35.660873 -12.132216 -175.928314 4.033339 -179.010597
Spine -15.611033 12.413000 -3.837799
Head 0.634407 -6.547567 8.242477
LeftShoulder 16.637670 -5.987164 11.376754
LeftArm 82.330666 -3.654802 -44.338671
LeftForeArm -0.000000 15.714460 2.468493
LeftHand -8.327001 -0.000000 -26.194800
LeftHandThumb1 -26.253704 33.147579 0.000000
RightShoulder 5.460773 15.043408 -15.723176
RightArm 64.824473 -0.994667 47.187075
RightForeArm -0.000000 -51.249757 14.497372
RightHand -6.568218 -0.000000 31.114952
RightHandThumb1 -24.326973 -32.862282 -0.000000
LeftUpLeg 4.571150 13.137454 -0.222398
LeftLeg -3.556388 -0.000000 0.000000
LeftFoot -17.909203 25.204274 -11.408154
LeftToeBase 19.720110 -0.000000 -0.000000
RightUpLeg 3.646773 -8.750305 0.435666
RightLeg -2.754560 -0.000000 0.000000
RightFoot -16.284362 -19.427795 11.190487
RightToeBase 19.415869 -0.000000 -0.000000
973
root 3.060628 35.660076 -12.129451 -175.942483 4.047811 -179.019418
Spine -15.633869 12.339463 -3.815230
Head 0.711789 -6.494523 8.208300
LeftShoulder 16.737931 -5.982198 11.355184
LeftArm 82.218577 -3.692769 -44.795565
LeftForeArm -0.000000 13.448497 2.607445
LeftHand -8.274627 -0.000000 -27.703230
LeftHandThumb1 -26.253704 33.147579 0.000000
RightShoulder 5.492728 15.022116 -15.666724
RightArm 64.862655 -0.900763 47.505962
RightForeArm -0.000000 -49.253641 14.750017
RightHand -6.272852 -0.000000 32.437031
RightHandThumb1 -24.326973 -32.862282 -0.000000
LeftUpLeg 4.580364 13.164520 -0.250743
LeftLeg -3.562575 -0.000000 0.000000
LeftFoot -17.912137 25.220091 -11.397212
LeftToeBase 19.727140 -0.000000 -0.000000
RightUpLeg 3.654653 -8.743465 0.407696
RightLeg -2.760050 -0.000000 0.000000
RightFoot -16.283142 -19.431098 11.169626
RightToeBase 19.455867 -0.000000 -0.000000
974
root 3.050220 35.659131 -12.126264 -175.962674 4.071590 -179.021791
Spine -15.654535 12.174520 -3.733079
Head 0.847747 -6.354631 8.114266
LeftShoulder 16.727636 -5.954859 11.344287
LeftArm 82.077695 -3.787459 -45.730511
LeftForeArm 0.000000 11.372422 2.767087
LeftHand -8.096586 -0.000000 -29.111862
LeftHandThumb1 -26.253704 33.147579 0.000000
RightShoulder 5.651739 15.036761 -15.616496
RightArm 64.859398 -0.796233 47.913690
RightForeArm 0.000000 -47.130537 15.040016
RightHand -5.953905 -0.000000 33.563736
RightHandThumb1 -24.326973 -32.862282 -0.000000
LeftUpLeg 4.600510 13.194371 -0.265294
LeftLeg -3.566532 -0.000000 0.000000
LeftFoot -17.907374 25.212014 -11.376281
LeftToeBase 19.745494 -0.000000 -0.000000
RightUpLeg 3.665856 -8.720526 0.384622
RightLeg -2.760183 -0.000000 0.000000
RightFoot -16.284012 -19.438029 11.165718
RightToeBase 19.474561 -0.000000 -0.000000
975
root 3.041124 35.657217 -12.122822 -175.981416 4.110539 -179.016168
Spine -15.654541 12.152825 -3.712736
Head 0.860914 -6.336428 8.132713
LeftShoulder 16.795608 -6.028588 11.380868
LeftArm 81.957233 -3.798029 -46.673677
LeftForeArm -0.000000 8.970388 2.936254
LeftHand -7.856850 -0.000000 -30.469315
LeftHandThumb1 -26.253704 33.147579 0.000000
RightShoulder 5.598185 15.073179 -15.577994
RightArm 64.855718 -0.753892 48.318239
RightForeArm -0.000000 -44.809128 15.297787
RightHand -5.626439 0.000000 34.483550
RightHandThumb1 -24.326973 -32.862282 -0.000000
LeftUpLeg 4.616906 13.227601 -0.272105
LeftLeg -3.557540 -0.000000 0.000000
LeftFoot -17.890060 25.221866 -11.293819
LeftToeBase 19.666781 -0.000000 -0.000000
RightUpLeg 3.672491 -8.697580 0.373749
RightLeg -2.760681 -0.000000 0.000000
RightFoot -16.282482 -19.445410 11.133038
RightToeBase 19.483269 -0.000000 -0.000000
976
root 3.031937 35.657199 -12.119805 -176.002109 4.151462 -179.015649
Spine -15.670239 12.148291 -3.703927
Head 0.913017 -6.338865 8.122893
LeftShoulder 16.914007 -6.078675 11.394651
LeftArm 81.805201 -3.838077 -47.697090
LeftForeArm 0.000000 6.701274 3.118569
LeftHand -7.614818 0.000000 -31.684712
LeftHandThumb1 -26.253704 33.147579 0.000000
RightShoulder 5.579021 15.095256 -15.530779
RightArm 64.813245 -0.571870 49.046902
RightForeArm 0.000000 -42.872127 15.554166
RightHand -5.118938 0.000000 35.201489
RightHandThumb1 -24.326973 -32.862282 -0.000000
LeftUpLeg 4.623584 13.312280 -0.283135
LeftLeg -3.530623 -0.000000 0.000000
LeftFoot -17.904155 25.174429 -11.294859
LeftToeBase 19.650693 -0.000000 -0.000000
RightUpLeg 3.683066 -8.674275 0.354297
RightLeg -2.762324 -0.000000 0.000000
RightFoot -16.273152 -19.424680 11.151812
RightToeBase 19.514350 -0.000000 -0.000000
977
root 3.022068 35.656713 -12.115867 -176.016811 4.206835 -179.017290
Spine -15.682229 12.128105 -3.676951
Head 0.959195 -6.303774 8.104806
LeftShoulder 16.966755 -6.128048 11.401413
LeftArm 81.675213 -3.845477 -48.828590
LeftForeArm -0.000000 4.210939 3.344176
LeftHand -7.574476 -0.000000 -32.674402
LeftHandThumb1 -26.253704 33.147579 0.000000
RightShoulder 5.551729 15.119298 -15.520252
RightArm 64.789086 -0.363922 49.912603
RightForeArm -0.000000 -41.072781 15.864662
RightHand -4.519126 -0.000000 36.420250
RightHandThumb1 -24.326973 -32.862282 -0.000000
LeftUpLeg 4.649376 13.324342 -0.300513
LeftLeg -3.554739 -0.000000 0.000000
LeftFoot -17.938443 25.211970 -11.316031
LeftToeBase 19.783182 -0.000000 -0.000000
RightUpLeg 3.675119 -8.658494 0.332073
RightLeg -2.745771 -0.000000 0.000000
RightFoot -16.252508 -19.402662 11.110463
RightToeBase 19.469486 -0.000000 -0.000000
978
root 3.015652 35.656173 -12.113386 -176.049914 4.272670 -179.006359
Spine -15.677420 12.118089 -3.635271
Head 1.013760 -6.233358 8.075019
LeftShoulder 17.039818 -6.157515 11.378687
LeftArm 81.504209 -3.864732 -49.793042
LeftForeArm -0.000000 1.812076 3.672969
LeftHand -7.329248 0.000000 -33.534406
LeftHandThumb1 -26.253704 33.147579 0.000000
RightShoulder 5.560385 15.149167 -15.501505
RightArm 64.728897 -0.260249 50.530981
RightForeArm -0.000000 -38.712768 16.153884
RightHand -3.984976 0.000000 36.929228
RightHandThumb1 -24.326973 -32.862282 -0.000000
LeftUpLeg 4.648467 13.530062 -0.290592
LeftLeg -3.479022 -0.000000 0.000000
LeftFoot -17.976761 25.082680 -11.286153
LeftToeBase 19.779505 -0.000000 -0.000000
RightUpLeg 3.697340 -8.606178 0.325278
RightLeg -2.749716 -0.000000 0.000000
RightFoot -16.253875 -19.396888 11.121890
RightToeBase 19.549692 -0.000000 -0.000000
979
root 3.006973 35.655644 -12.109104 -176.069744 4.342981 -179.004530
Spine -15.675763 12.052313 -3.585315
Head 1.057858 -6.113910 8.051504
LeftShoulder 17.001526 -6.187170 11.372565
LeftArm 81.382259 -3.850381 -50.931793
LeftForeArm -0.000000 -0.367981 4.018369
LeftHand -7.189969 -0.000000 -34.334622
LeftHandThumb1 -26.253704 33.147579 0.000000
RightShoulder 5.626640 15.197702 -15.470489
RightArm 64.682806 -0.085614 51.328283
RightForeArm -0.000000 -36.443316 16.388578
RightHand -3.381252 -0.000000 37.431259
RightHandThumb1 -24.326973 -32.862282 -0.000000
LeftUpLeg 4.661608 13.578703 -0.302477
LeftLeg -3.456967 -0.000000 0.000000
LeftFoot -17.962545 25.098311 -11.250734
LeftToeBase 19.689640 -0.000000 -0.000000
RightUpLeg 3.697502 -8.580875 0.306204
RightLeg -2.742050 -0.000000 0.000000
RightFoot -16.241576 -19.361702 11.086496
RightToeBase 19.581874 -0.000000 -0.000000
980
root 2.999508 35.655736 -12.104084 -176.092360 4.418860 -179.001341
Spine -15.681496 12.033997 -3.551667
Head 1.117897 -6.055182 8.031212
LeftShoulder 17.042254 -6.194614 11.341196
LeftArm 81.244648 -3.854939 -51.896142
LeftForeArm -0.000000 -2.520196 4.423677
LeftHand -7.147749 -0.000000 -34.988612
LeftHandThumb1 -26.253704 33.147579 0.000000
RightShoulder 5.676164 15.255367 -15.410529
RightArm 64.585540 0.028416 51.965815
RightForeArm -0.000000 -33.992756 16.654222
RightHand -2.982184 0.000000 37.858352
RightHandThumb1 -24.326973 -32.862282 -0.000000
LeftUpLeg 4.681195 13.639258 -0.311076
LeftLeg -3.449795 -0.000000 0.000000
LeftFoot -17.957546 25.120604 -11.218583
LeftToeBase 19.673669 -0.000000 -0.000000
RightUpLeg 3.693021 -8.556678 0.291016
RightLeg -2.727653 -0.000000 0.000000
RightFoot -16.230013 -19.320531 11.083412
RightToeBase 19.588781 -0.000000 -0.000000
981
root 2.992067 35.656234 -12.099739 -176.113970 4.494473 -179.001962
Spine -15.694806 12.019824 -3.525526
Head 1.186433 -6.003695 8.014806
LeftShoulder 17.102607 -6.179011 11.297184
LeftArm 81.137644 -3.876291 -52.812080
LeftForeArm 0.000000 -4.662250 4.833919
LeftHand -7.066050 -0.000000 -35.418528
LeftHandThumb1 -26.253704 33.147579 0.000000
RightShoulder 5.737894 15.316359 -15.353376
RightArm 64.453769 0.173378 52.690196
RightForeArm 0.000000 -31.706845 16.937716
RightHand -2.404579 -0.000000 37.963205
RightHandThumb1 -24.326973 -32.862282 -0.000000
LeftUpLeg 4.698780 13.680680 -0.323441
LeftLeg -3.442460 -0.000000 0.000000
LeftFoot -18.016490 25.141023 -11.279894
LeftToeBase 19.794968 -0.000000 -0.000000
RightUpLeg 3.690327 -8.538886 0.272356
RightLeg -2.715493 -0.000000 0.000000
RightFoot -16.210822 -19.283013 11.064831
RightToeBase 19.591208 -0.000000 -0.000000
